<?xml version="1.0" encoding="UTF-8" standalone="no"?>
<!-- Created with Inkscape (http://www.inkscape.org/) -->

<svg
   width="210mm"
   height="297mm"
   viewBox="0 0 210 297"
   version="1.1"
   id="svg5"
   xml:space="preserve"
   inkscape:version="1.2.1 (9c6d41e410, 2022-07-14, custom)"
   sodipodi:docname="icono.svg"
   inkscape:export-filename="icono.png"
   inkscape:export-xdpi="43.787205"
   inkscape:export-ydpi="43.787205"
   xmlns:inkscape="http://www.inkscape.org/namespaces/inkscape"
   xmlns:sodipodi="http://sodipodi.sourceforge.net/DTD/sodipodi-0.dtd"
   xmlns="http://www.w3.org/2000/svg"
   xmlns:svg="http://www.w3.org/2000/svg"><sodipodi:namedview
     id="namedview7"
     pagecolor="#ffffff"
     bordercolor="#666666"
     borderopacity="1.0"
     inkscape:showpageshadow="2"
     inkscape:pageopacity="0.0"
     inkscape:pagecheckerboard="0"
     inkscape:deskcolor="#d1d1d1"
     inkscape:document-units="mm"
     showgrid="false"
     inkscape:zoom="1.1079795"
     inkscape:cx="221.12323"
     inkscape:cy="444.05155"
     inkscape:window-width="2560"
     inkscape:window-height="1371"
     inkscape:window-x="0"
     inkscape:window-y="32"
     inkscape:window-maximized="1"
     inkscape:current-layer="g1787" /><defs
     id="defs2" /><g
     inkscape:label="Capa 1"
     inkscape:groupmode="layer"
     id="layer1"><g
       id="g1787"
       transform="translate(-29.689997,22.78338)"><g
         id="g1780"
         transform="translate(-160.30607,-94.06686)"
         style="fill:#000080"
         inkscape:export-filename="icono.png"
         inkscape:export-xdpi="125.22382"
         inkscape:export-ydpi="125.22382"><path
           style="fill:#000080;stroke-width:0.126737"
           d="m 245.24358,198.60907 c -6.7823,-0.0532 -8.79243,-0.10541 -9.18848,-0.23834 -0.27882,-0.0936 -0.99172,-0.32905 -1.58422,-0.52326 -3.02325,-0.99092 -5.09585,-2.05625 -7.27893,-3.7414 -1.4121,-1.09001 -3.65909,-3.44398 -4.66585,-4.88797 -1.71639,-2.4618 -3.09265,-5.57103 -3.58461,-8.09831 -0.24288,-1.24769 -0.41879,-9.45603 -0.46919,-21.89393 l -0.0381,-9.41027 h 24.68436 24.68436 v 24.46037 24.46037 l -6.93889,-0.0296 c -3.81638,-0.0162 -10.84557,-0.0602 -15.62042,-0.0977 z m -9.18679,-14.62174 c 0.3476,-0.2352 2.62241,-2.38816 5.05513,-4.78435 2.43272,-2.39619 4.4482,-4.34765 4.47885,-4.3366 0.0306,0.011 1.86138,1.78841 4.06829,3.94965 5.38923,5.27772 5.28232,5.19456 6.49476,5.05097 0.89118,-0.10555 1.6544,-0.66503 1.99856,-1.46504 0.35195,-0.81814 0.34306,-0.967 -0.10302,-1.72575 -0.49536,-0.84256 -0.57091,-0.92386 -5.00651,-5.38764 l -3.84238,-3.86678 3.47975,-3.54737 c 5.20663,-5.30782 6.1236,-6.36101 6.12312,-7.03265 -6e-4,-1.09701 -0.97954,-2.37954 -2.03218,-2.66299 -0.47347,-0.12749 -0.59644,-0.10849 -1.19587,0.18479 -0.85802,0.41979 -1.87581,1.34942 -6.34504,5.79546 l -3.65306,3.63411 -4.26972,-4.20775 c -2.34835,-2.31426 -4.50564,-4.37124 -4.79398,-4.57106 -0.88144,-0.61084 -2.15988,-0.46626 -2.88478,0.32623 -0.80887,0.88429 -1.05715,2.07045 -0.58279,2.7842 0.33003,0.4966 2.08042,2.3328 5.70082,5.98034 l 3.24676,3.27111 -4.13773,4.14305 c -2.27575,2.27867 -4.45311,4.54076 -4.83858,5.02685 -0.62163,0.78391 -0.70085,0.95009 -0.70085,1.47016 0,0.44638 0.0881,0.70791 0.36895,1.09565 0.96174,1.32765 2.22024,1.65441 3.3715,0.87541 z m 36.8156,-9.698 v -24.47374 h 24.70713 24.70712 l -0.0559,3.51697 c -0.0307,1.93434 -0.0844,8.27914 -0.11929,14.09956 -0.0349,5.82043 -0.12207,11.27947 -0.19381,12.1312 -0.15353,1.82293 -0.51528,3.17337 -1.41847,5.29523 -1.14184,2.6825 -2.00073,4.13928 -3.47973,5.90206 -2.90585,3.46338 -6.94212,5.92176 -12.52598,7.62921 -0.54659,0.16713 -2.76311,0.2061 -16.12737,0.28351 l -15.49368,0.0897 z m 35.72914,3.96115 c 1.18195,-1.34276 0.95192,-3.16984 -0.4875,-3.87217 -0.50232,-0.24509 -0.85096,-0.28285 -3.29518,-0.35693 -7.30318,-0.22131 -19.37425,-0.0805 -20.18244,0.23543 -0.56504,0.22089 -1.21183,0.94694 -1.37138,1.53945 -0.26407,0.98067 0.0381,1.84262 0.90651,2.58595 l 0.53309,0.45631 h 11.68965 11.68965 z m -2.89091,-9.28754 c 1.86379,-0.0825 2.15691,-0.12563 2.56417,-0.37734 0.64897,-0.40108 0.93203,-0.85824 1.03331,-1.66891 0.13686,-1.09539 -0.0743,-1.65869 -0.86236,-2.30066 l -0.66591,-0.54245 -11.58547,0.0218 -11.58548,0.0218 -0.54526,0.53734 c -0.36266,0.35739 -0.61421,0.75607 -0.75115,1.19049 -0.19098,0.60586 -0.19045,0.70625 0.007,1.38667 0.39456,1.35723 0.90132,1.5901 3.74719,1.72191 2.52413,0.11691 16.05986,0.12363 18.64361,0.009 z m -87.23643,-33.24692 c 0.0483,-12.40164 0.22507,-20.9239 0.4595,-22.14741 0.28936,-1.51022 0.96517,-3.30644 2.09808,-5.57646 0.53687,-1.07574 0.8435,-1.58594 1.88107,-3.12982 0.77568,-1.15422 3.80313,-4.02312 5.41126,-5.127869 1.947,-1.337546 5.43628,-2.801098 7.98448,-3.349032 1.06768,-0.229582 11.67319,-0.420504 23.795,-0.428362 l 7.69931,-0.005 v 24.460373 24.46037 h -24.68216 l -24.68217,1e-5 z m 28.23767,5.03872 c 0.14535,-0.0932 0.48754,-0.40506 0.76043,-0.693 l 0.49615,-0.52354 0.0634,-6.74296 0.0634,-6.74297 1.45749,-0.0289 c 0.80161,-0.0159 3.65321,-0.0457 6.33688,-0.0661 5.56001,-0.0424 5.51395,-0.0343 6.20668,-1.08017 0.33523,-0.5061 0.38368,-0.69111 0.38368,-1.46497 v -0.88571 l -0.74015,-0.74015 -0.74015,-0.74015 h -6.4839 -6.48389 v -6.76315 -6.76312 l -0.63637,-0.59525 c -0.35001,-0.32739 -0.83295,-0.67738 -1.0732,-0.77777 -1.20912,-0.5052 -2.58468,0.15228 -2.99166,1.42992 -0.10728,0.33681 -0.16914,2.40437 -0.20865,6.97404 l -0.0562,6.49531 h -6.43414 -6.43415 l -0.60635,0.53373 c -0.64172,0.56486 -1.06954,1.32559 -1.07415,1.91004 -0.006,0.78075 0.64789,1.78043 1.45471,2.22345 0.33396,0.18337 1.15114,0.21669 6.71709,0.27384 l 6.33689,0.0651 0.0328,6.72251 0.0328,6.72252 0.68146,0.67299 c 0.40372,0.3987 0.85526,0.71598 1.10786,0.77845 0.53118,0.13135 1.48081,0.0307 1.8313,-0.19401 z m 26.16053,-20.34229 V 95.952076 l 5.54478,0.0062 c 11.53451,0.01298 24.61079,0.227048 25.88616,0.423777 1.75349,0.270478 4.87673,1.46283 6.84912,2.614768 2.32558,1.358219 5.35051,4.154259 6.9946,6.465349 1.6452,2.31267 3.30729,6.13609 3.6411,8.37589 0.1572,1.05476 0.36065,12.7253 0.41342,23.71564 l 0.0351,7.31912 -24.68216,-2e-5 -24.68216,-2e-5 z m 34.91624,5.33118 c 0.75802,-0.19338 1.28675,-0.65348 1.45757,-1.26837 0.29345,-1.05634 0.0754,-1.90945 -0.71203,-2.78521 l -0.57893,-0.64391 h -11.59589 -11.5959 l -0.69221,0.66537 c -0.49944,0.48007 -0.72375,0.80533 -0.80546,1.16793 -0.21886,0.97123 0.31109,2.34592 1.06436,2.76092 0.49738,0.27402 2.29061,0.31546 12.55904,0.29019 7.83698,-0.0193 10.41568,-0.0635 10.89945,-0.18692 z"
           id="path1605" /><path
           style="fill:#000080;fill-opacity:1;stroke:#200d0d;stroke-width:0.413106;stroke-opacity:0"
           d="m 1113.3252,647.89998 c -13.7434,0.82707 -28.0706,-1.42194 -41.402,2.59162 -13.2664,4.22634 -13.8191,22.89277 -4.2631,31.29377 7.792,7.07565 19.2601,2.66708 28.7854,3.89385 22.8215,-0.19507 45.7483,0.38972 68.5043,-0.29007 13.2238,-3.08907 19.0536,-23.58938 7.3167,-32.15649 -10.4809,-7.73612 -24.4594,-4.03055 -36.5407,-5.26887 -7.4666,-0.0744 -14.9337,-0.087 -22.4006,-0.0638 z"
           id="path1749"
           transform="scale(0.26458333)" /><path
           style="fill:#000080;fill-opacity:1;stroke:#200d0d;stroke-width:0.413106;stroke-opacity:0"
           d="m 1070.4588,612.06552 c -9.9439,6.80322 -13.6986,23.21611 -3.04,31.15928 10.2866,7.46174 23.9018,3.73197 35.717,4.89782 21.0643,-0.24357 42.3369,0.65261 63.2644,-0.7418 13.1679,-4.12671 16.3327,-23.91911 5.5887,-32.59857 -7.7368,-7.43619 -19.4562,-2.91592 -29.082,-4.15344 -22.7475,0.19529 -45.6005,-0.39013 -68.2824,0.29007 -1.3886,0.38222 -2.7772,0.76443 -4.1657,1.14664 z"
           id="path1751"
           transform="scale(0.26458333)" /></g><path
         style="fill:#90f241;fill-opacity:1;stroke-width:0.0426407"
         d="m 120.27297,92.336603 c -0.12082,-0.0602 -0.2763,-0.17394 -0.34548,-0.25275 -0.0692,-0.0788 -0.13881,-0.13028 -0.1547,-0.1144 -0.0159,0.0159 -0.0233,0.01 -0.0165,-0.0137 0.007,-0.0235 -0.0252,-0.14819 -0.0711,-0.27718 -0.1015,-0.28532 -0.1015,-0.91226 4e-5,-3.496541 0.0755,-1.921989 0.14491,-3.786052 0.14445,-3.88031 -1.8e-4,-0.03522 0.0199,-0.514889 0.0446,-1.066025 0.0672,-1.498926 0.0868,-1.963229 0.13336,-3.155414 0.0719,-1.842643 0.25313,-6.363117 0.2974,-7.419495 0.0231,-0.55113 0.0618,-1.520145 0.0861,-2.153356 0.0674,-1.75988 0.0798,-1.964287 0.12697,-2.088227 0.024,-0.06321 0.036,-0.127713 0.0266,-0.143334 -0.0206,-0.03431 0.59367,-0.652271 0.62114,-0.624801 0.0106,0.01058 0.0756,0.0032 0.14438,-0.01587 0.12563,-0.03528 0.55735,0.04908 0.78604,0.153629 0.0586,0.02683 0.28888,0.117361 0.51169,0.201247 0.22279,0.08388 0.46809,0.180905 0.54511,0.215611 0.077,0.0347 0.1621,0.06308 0.18908,0.06308 0.027,0 0.12707,0.03657 0.22242,0.08121 0.0953,0.0447 0.34606,0.148301 0.55713,0.23031 0.86848,0.33741 1.24663,0.486117 2.32313,0.913553 0.62104,0.246596 1.14872,0.451849 1.17261,0.456119 0.0239,0.0045 0.13819,0.05044 0.25398,0.102519 0.1158,0.05212 0.25492,0.09843 0.30915,0.10292 0.0542,0.0045 0.0986,0.02025 0.0986,0.03502 0,0.03257 0.28002,0.150203 0.89547,0.376134 0.12898,0.04734 0.35481,0.135878 0.50183,0.196713 0.14702,0.06082 0.28909,0.09715 0.31573,0.08069 0.0297,-0.01838 0.0366,-0.0109 0.018,0.01928 -0.0168,0.02709 -0.01,0.04921 0.0161,0.04921 0.0442,0 0.7997,0.302238 1.18401,0.473694 0.0994,0.04438 0.19981,0.08064 0.22309,0.08064 0.0971,0 0.77151,0.341272 0.79491,0.402249 0.014,0.03651 0.0395,0.0576 0.0567,0.04702 0.0172,-0.01064 0.0353,0.09336 0.0402,0.231072 0.007,0.197558 -0.0168,0.307372 -0.11348,0.520578 -0.0674,0.14861 -0.1279,0.28939 -0.13447,0.312848 -0.0172,0.06121 -0.55269,0.889392 -0.71957,1.112794 -0.0775,0.103707 -0.1288,0.20804 -0.11409,0.231852 0.0147,0.0238 0.007,0.03799 -0.0163,0.0316 -0.0237,-0.0064 -0.18105,0.189761 -0.34975,0.436008 -0.16871,0.246255 -0.42798,0.62304 -0.57619,0.83731 -0.14819,0.214263 -0.25607,0.402952 -0.23972,0.419296 0.0163,0.01638 0.008,0.02335 -0.0187,0.01554 -0.0266,-0.0078 -0.11968,0.08883 -0.20679,0.214786 -0.0871,0.125952 -0.13263,0.213095 -0.10118,0.193656 0.0315,-0.01948 -0.0146,0.03644 -0.10236,0.124204 -0.14581,0.145811 -0.17885,0.205078 -0.1646,0.295292 0.003,0.01761 -0.0146,0.02715 -0.0387,0.02135 -0.0241,-0.0058 -0.0768,0.04612 -0.11727,0.115452 -0.0404,0.06936 -0.10645,0.163413 -0.14668,0.209006 -0.0402,0.0456 -0.0611,0.103965 -0.0464,0.129732 0.0147,0.02573 0.0111,0.0327 -0.008,0.01542 -0.0454,-0.04108 -0.24002,0.223029 -0.2055,0.278884 0.0162,0.02625 0.005,0.02935 -0.03,0.0079 -0.041,-0.02528 -0.049,-0.01548 -0.0294,0.03554 0.0149,0.03876 0.01,0.06588 -0.0112,0.06031 -0.0576,-0.01529 -0.25838,0.272795 -0.22767,0.326683 0.0147,0.0258 0.0117,0.03335 -0.007,0.01677 -0.0184,-0.01658 -0.11105,0.07453 -0.20586,0.202511 -0.17453,0.235573 -0.32516,0.317228 -0.58623,0.317802 -0.14377,2.71e-4 -0.5707,0.11302 -0.76198,0.20117 -0.38441,0.177125 -0.52302,0.308463 -0.82849,0.784976 -0.17772,0.277232 -0.24571,0.825467 -0.15269,1.231413 0.0575,0.250859 0.22272,0.585347 0.36969,0.748353 0.15999,0.177448 0.41991,0.363261 0.45668,0.326484 0.0166,-0.01658 0.0237,-0.0039 0.0159,0.0278 -0.0153,0.06224 0.28755,0.192747 0.35316,0.152203 0.0208,-0.01283 0.0377,-0.0032 0.0377,0.02187 0,0.05805 0.19363,0.0576 0.46724,-0.0013 0.13385,-0.0287 0.20491,-0.06353 0.18739,-0.09187 -0.017,-0.0276 -0.008,-0.03315 0.0229,-0.01406 0.10838,0.06698 0.58212,-0.331585 0.80277,-0.67536 0.0588,-0.09163 0.11151,-0.187568 0.11714,-0.213206 0.0269,-0.122475 0.16354,-0.359119 0.55591,-0.962732 0.23453,-0.360784 0.42111,-0.679773 0.41462,-0.708868 -0.007,-0.02909 0.0108,-0.0669 0.0386,-0.08402 0.0343,-0.02122 0.0393,-0.01206 0.0156,0.02877 -0.0679,0.116974 0.0206,0.01013 0.14505,-0.175093 0.0695,-0.103436 0.11499,-0.208007 0.10117,-0.232387 -0.0138,-0.02438 -0.0101,-0.03077 0.008,-0.01419 0.0468,0.04212 0.54441,-0.725972 0.50827,-0.784446 -0.0175,-0.02832 -0.0102,-0.0358 0.0179,-0.01838 0.0486,0.03006 0.19225,-0.195791 0.15595,-0.245248 -0.0108,-0.01471 -0.007,-0.01735 0.008,-0.0058 0.0404,0.03018 0.31811,-0.404752 0.28876,-0.452236 -0.0136,-0.02193 -0.003,-0.03451 0.0223,-0.02806 0.0258,0.0065 0.08,-0.04586 0.12043,-0.116206 0.0404,-0.07036 0.0831,-0.137517 0.0949,-0.149243 0.0968,-0.09684 0.21578,-0.315564 0.19749,-0.363202 -0.0132,-0.03431 -0.001,-0.0507 0.0286,-0.03921 0.0602,0.02309 0.29876,-0.351999 0.26185,-0.411711 -0.0139,-0.02245 -0.009,-0.03554 0.01,-0.02909 0.0193,0.0065 0.0413,-0.0075 0.0488,-0.0309 0.008,-0.02348 0.0415,-0.05818 0.0755,-0.07724 0.034,-0.01903 0.0507,-0.05263 0.0371,-0.07462 -0.0136,-0.02199 -0.008,-0.04005 0.0132,-0.04005 0.0432,0 0.56405,-0.779293 0.56405,-0.843998 0,-0.02328 0.0284,-0.05328 0.0633,-0.0666 0.0392,-0.01503 0.0526,-0.05186 0.0354,-0.09684 -0.018,-0.04695 -0.0113,-0.06237 0.019,-0.04366 0.0262,0.01619 0.0588,-0.009 0.0741,-0.05695 0.015,-0.04728 0.0408,-0.0859 0.0573,-0.0859 0.0165,0 0.0678,-0.07195 0.11398,-0.159904 0.0462,-0.08794 0.0947,-0.169495 0.10788,-0.181221 0.072,-0.06405 0.20564,-0.332636 0.17882,-0.359455 -0.0173,-0.01729 -0.006,-0.02502 0.0245,-0.01722 0.0308,0.0078 0.0979,-0.06198 0.14925,-0.15504 0.0513,-0.09308 0.11462,-0.189025 0.14067,-0.213199 0.0755,-0.07006 0.31508,-0.438917 0.31508,-0.485085 0,-0.06528 0.3862,-0.38935 0.49718,-0.417207 0.0546,-0.01367 0.0913,-0.03767 0.0816,-0.05334 -0.0281,-0.04541 0.53816,-0.05392 0.67911,-0.01026 0.0704,0.0218 0.29102,0.100004 0.49036,0.173784 0.19935,0.07378 0.39478,0.141445 0.4343,0.150352 0.0395,0.0089 0.10833,0.03573 0.1529,0.0596 0.0446,0.02387 0.27128,0.112769 0.50379,0.197584 0.23252,0.08481 0.49471,0.181769 0.58266,0.215456 0.0879,0.03367 0.24146,0.09232 0.34113,0.130306 0.0997,0.03799 0.2196,0.08625 0.26651,0.107248 0.0469,0.02103 0.14284,0.05566 0.21319,0.07698 0.0704,0.02135 0.22387,0.0765 0.34114,0.122573 0.4449,0.174796 1.15301,0.443935 1.19394,0.453796 0.0235,0.0058 0.0714,0.02238 0.1066,0.03722 0.41486,0.174835 1.55304,0.576827 1.58218,0.558812 0.021,-0.01296 0.0382,-0.0052 0.0382,0.01741 0,0.05076 0.25166,0.142231 0.30338,0.11026 0.0208,-0.01284 0.0377,-0.0052 0.0377,0.0169 0,0.02212 0.0336,0.05044 0.0746,0.06295 0.0831,0.02535 0.55026,0.198152 1.15829,0.428481 0.22079,0.08364 0.41747,0.142154 0.43708,0.130035 0.0196,-0.01213 0.0357,-0.0039 0.0357,0.01819 0,0.02212 0.0336,0.05012 0.0746,0.06224 0.041,0.01212 0.23772,0.08356 0.43707,0.158697 0.19934,0.07513 0.53514,0.200371 0.74622,0.27831 0.21107,0.07794 0.53727,0.201338 0.72489,0.274221 0.38937,0.151248 0.76109,0.290139 0.91677,0.342543 0.0586,0.01974 0.33432,0.123515 0.61264,0.23062 0.27832,0.107106 0.52296,0.184272 0.54367,0.171475 0.0207,-0.01277 0.0376,-0.0045 0.0376,0.01903 0,0.02328 0.0431,0.05437 0.0959,0.06916 0.0528,0.01477 0.13432,0.04418 0.18122,0.06529 0.0469,0.02116 0.44986,0.17501 0.89545,0.34195 0.4456,0.166948 1.15557,0.434893 1.57771,0.595435 0.42214,0.160549 0.88267,0.333875 1.02338,0.385171 0.31458,0.114684 1.04532,0.398676 1.82063,0.707564 1.27525,0.508079 1.61498,0.793735 1.5544,1.307005 -0.0341,0.288772 -0.17067,0.508723 -0.38292,0.616635 -0.22979,0.116826 -0.69079,0.290023 -0.88122,0.33107 -0.082,0.01767 -0.20671,0.05734 -0.27716,0.0882 -0.11333,0.0496 -0.79169,0.272176 -4.17897,1.371115 -0.46905,0.15217 -1.01592,0.332985 -1.21526,0.401811 -0.19935,0.06883 -0.40083,0.133453 -0.44773,0.143624 -0.11652,0.02528 -1.79725,0.566791 -1.9828,0.638849 -0.0821,0.03186 -0.43192,0.147952 -0.77742,0.257948 -0.3455,0.109988 -0.61793,0.216552 -0.60541,0.236811 0.0125,0.02025 -0.008,0.02516 -0.045,0.01084 -0.0373,-0.01432 -0.14861,0.0039 -0.24741,0.03973 -0.0988,0.03612 -0.89917,0.299904 -1.77864,0.586127 -1.49537,0.486672 -2.66681,0.8727 -2.96354,0.976581 -0.0704,0.02464 -0.40615,0.132595 -0.74621,0.239914 -0.34006,0.107318 -0.71423,0.230084 -0.83149,0.272808 -0.11726,0.0427 -0.32834,0.109821 -0.46905,0.149101 -0.14072,0.03928 -0.33146,0.10339 -0.42387,0.142483 -0.096,0.04063 -0.27263,0.06964 -0.41218,0.06775 -0.23509,-0.0032 -0.25302,-0.01174 -0.48226,-0.230549 -0.28519,-0.272189 -0.30177,-0.381559 -0.11244,-0.741498 0.0691,-0.13137 0.11411,-0.238856 0.1,-0.238856 -0.0141,0 0.003,-0.0336 0.0389,-0.07462 0.0593,-0.06852 0.26838,-0.418974 0.50234,-0.842153 0.0519,-0.09381 0.13053,-0.229982 0.1748,-0.302606 0.0443,-0.07262 0.068,-0.14458 0.0526,-0.159904 -0.0153,-0.01529 -0.006,-0.02786 0.021,-0.02786 0.063,0 0.23268,-0.330663 0.1983,-0.386286 -0.0144,-0.02322 -0.006,-0.03696 0.0181,-0.03051 0.0457,0.01213 0.35953,-0.489406 0.4126,-0.659462 0.0165,-0.05302 0.0438,-0.105951 0.0606,-0.117677 0.0774,-0.05405 0.25636,-0.392091 0.2301,-0.434581 -0.0179,-0.02896 -0.0101,-0.03573 0.0198,-0.01722 0.0436,0.02696 0.0573,5.48e-4 0.0456,-0.0871 -0.002,-0.01496 0.0181,-0.04063 0.0446,-0.05702 0.0266,-0.01638 0.081,-0.08999 0.12091,-0.16351 0.38291,-0.704746 0.51707,-0.851621 0.75022,-0.821333 0.20374,0.02651 0.63484,-0.0985 0.86935,-0.252027 0.23087,-0.151138 0.53037,-0.427139 0.46349,-0.427139 -0.017,0 0.006,-0.03915 0.05,-0.08695 0.19669,-0.211122 0.32307,-0.976278 0.22129,-1.339796 -0.0298,-0.10648 -0.072,-0.193604 -0.0938,-0.193604 -0.0218,0 -0.0282,-0.01851 -0.0142,-0.04121 0.041,-0.06634 -0.14069,-0.380707 -0.34835,-0.602697 -0.20471,-0.218868 -0.48353,-0.379501 -0.65868,-0.379501 -0.25938,0 -0.79341,0.255265 -0.73426,0.350974 0.0158,0.02554 0.009,0.0338 -0.016,0.01857 -0.0553,-0.03412 -0.15025,0.07322 -0.10699,0.120967 0.0174,0.01922 0.0102,0.0227 -0.016,0.0077 -0.0576,-0.03289 -0.20043,0.113672 -0.15503,0.159072 0.0177,0.01761 0.004,0.02567 -0.0302,0.01787 -0.0384,-0.0088 -0.0996,0.0596 -0.1592,0.177667 -0.28869,0.571938 -0.47696,0.980741 -0.45169,0.980741 0.0157,0 -10e-4,0.02399 -0.0372,0.05327 -0.0362,0.02935 -0.29234,0.437066 -0.56919,0.906116 -0.27685,0.469051 -0.55744,0.936953 -0.62354,1.039789 -0.0661,0.10283 -0.10809,0.206536 -0.0933,0.230452 0.0148,0.02393 0.008,0.03154 -0.0161,0.0169 -0.0411,-0.02541 -0.16366,0.170765 -0.14819,0.237256 0.004,0.01761 -0.0122,0.03199 -0.0361,0.03199 -0.0239,0 -0.067,0.05276 -0.0956,0.117257 -0.0286,0.0645 -0.0673,0.136451 -0.0858,0.159903 -0.0856,0.108318 -0.3405,0.559832 -0.34194,0.605761 -6.5e-4,0.02825 -0.0176,0.04154 -0.0371,0.02948 -0.0196,-0.01206 -0.0355,-0.0026 -0.0355,0.02128 0,0.0238 -0.0477,0.113549 -0.10599,0.199454 -0.0583,0.0859 -0.0937,0.176067 -0.0787,0.200364 0.015,0.02432 0.008,0.03218 -0.0159,0.01754 -0.0527,-0.03257 -0.27956,0.370685 -0.23577,0.419084 0.0172,0.01896 0.0114,0.02328 -0.0128,0.0095 -0.0242,-0.01367 -0.18731,0.225034 -0.36245,0.530549 -0.17514,0.305515 -0.35202,0.594822 -0.39306,0.642912 -0.041,0.04805 -0.0746,0.102823 -0.0746,0.12165 0,0.01883 -0.0477,0.104507 -0.10599,0.190412 -0.0583,0.0859 -0.0937,0.176067 -0.0787,0.200364 0.015,0.02432 0.009,0.03264 -0.0142,0.01851 -0.0532,-0.03289 -0.32221,0.431776 -0.28493,0.492082 0.0161,0.02606 0.008,0.03283 -0.0196,0.01587 -0.0285,-0.01761 -0.0822,0.03844 -0.1339,0.139761 -0.0475,0.09305 -0.10577,0.181208 -0.12956,0.195907 -0.0238,0.0147 -0.0433,0.05521 -0.0433,0.08996 0,0.03476 -0.0336,0.0993 -0.0747,0.143392 -0.0411,0.04412 -0.12845,0.182408 -0.19416,0.307367 -0.24689,0.469502 -0.44195,0.739278 -0.5982,0.827398 -0.0863,0.0487 -0.14244,0.10453 -0.12467,0.1241 0.0178,0.0196 0.008,0.0214 -0.0223,0.004 -0.0493,-0.0284 -0.61429,0.14215 -2.24796,0.67884 -0.30488,0.10016 -0.78459,0.25528 -1.06602,0.34471 -0.28143,0.0894 -0.51812,0.17808 -0.52599,0.197 -0.008,0.0189 -0.0301,0.0246 -0.0495,0.0126 -0.0194,-0.0119 -0.3391,0.0767 -0.7106,0.19705 -1.14173,0.36979 -2.20726,0.7204 -2.27447,0.7484 -0.0352,0.0146 -0.0983,0.0333 -0.14018,0.0415 -0.0805,0.0157 -1.07822,0.33721 -1.91289,0.61636 -0.27317,0.0914 -0.52855,0.16612 -0.5675,0.16612 -0.0427,0 -0.0588,0.0196 -0.0404,0.0492 0.0171,0.0276 0.0119,0.0377 -0.0119,0.0231 -0.0233,-0.0144 -0.20372,0.0317 -0.40102,0.1023 -0.96723,0.34626 -1.22348,0.37576 -1.60636,0.18496 z m 0.38247,-24.383357 c 0.0303,-0.03283 0.0617,-0.05327 0.0699,-0.04547 0.0253,0.02406 -0.0388,0.105139 -0.0831,0.105139 -0.023,0 -0.017,-0.02683 0.0132,-0.05966 z"
         id="path309" /></g></g></svg>
