<?xml version="1.0" encoding="UTF-8" standalone="no"?>
<!-- Created with Inkscape (http://www.inkscape.org/) -->

<svg
   width="6.7589221mm"
   height="7.63973mm"
   viewBox="0 0 6.7589221 7.63973"
   version="1.1"
   id="svg1"
   xml:space="preserve"
   sodipodi:docname="logo.svg"
   xmlns:inkscape="http://www.inkscape.org/namespaces/inkscape"
   xmlns:sodipodi="http://sodipodi.sourceforge.net/DTD/sodipodi-0.dtd"
   xmlns="http://www.w3.org/2000/svg"
   xmlns:svg="http://www.w3.org/2000/svg"><sodipodi:namedview
     id="namedview1"
     pagecolor="#ffffff"
     bordercolor="#666666"
     borderopacity="1.0"
     inkscape:showpageshadow="2"
     inkscape:pageopacity="0.0"
     inkscape:pagecheckerboard="0"
     inkscape:deskcolor="#d1d1d1"
     inkscape:document-units="mm" /><defs
     id="defs1" /><g
     inkscape:label="Capa 1"
     inkscape:groupmode="layer"
     id="layer1"
     transform="translate(-101.63325,-144.60639)"><g
       id="g50"
       transform="translate(0.0539956,-0.02406941)"><path
         style="fill:#f7a31d"
         d="m 106.50853,151.12508 c -0.007,-0.0111 -0.0166,-0.11382 -0.0216,-0.22831 -0.007,-0.15089 -0.0165,-0.21912 -0.0357,-0.248 -0.0263,-0.0396 -0.0258,-0.0401 0.0663,-0.0818 0.4223,-0.19109 0.75686,-0.40531 0.97923,-0.62702 0.1821,-0.18156 0.25208,-0.30461 0.27822,-0.48923 0.0276,-0.19505 -0.0312,-0.51745 -0.13879,-0.76075 -0.0231,-0.0522 -0.0419,-0.097 -0.0419,-0.0995 0,-0.003 0.0148,-7.9e-4 0.0329,0.004 0.0414,0.0108 0.25793,-0.0906 0.34819,-0.16318 0.0562,-0.0452 0.0654,-0.0608 0.0567,-0.0959 -0.0178,-0.0708 0.002,-0.0326 0.0742,0.13989 0.13597,0.32698 0.23241,0.73858 0.23189,0.9897 -4.8e-4,0.23245 -0.0922,0.47992 -0.24475,0.66033 -0.13854,0.16385 -0.51291,0.44603 -0.86939,0.65532 -0.27074,0.15894 -0.70189,0.36656 -0.7155,0.34454 z m 1.03852,-2.63749 c -0.0181,-0.0422 -0.0176,-0.0431 0.006,-0.0134 0.0138,0.0177 0.0251,0.0381 0.0251,0.0455 0,0.0251 -0.0112,0.0134 -0.0307,-0.0321 z m -0.0851,-0.15296 c -0.01,-0.0182 -0.014,-0.0331 -0.009,-0.0331 0.005,0 0.0162,0.0149 0.026,0.0331 0.01,0.0182 0.014,0.0331 0.009,0.0331 -0.005,0 -0.0162,-0.0149 -0.026,-0.0331 z m 0.50759,-0.14077 c -0.0151,-0.0317 -0.0241,-0.0577 -0.0199,-0.0577 0.0113,0 0.0615,0.10125 0.054,0.10882 -0.004,0.004 -0.0189,-0.0194 -0.034,-0.0512 z m -0.0776,-0.14035 c -0.01,-0.0182 -0.014,-0.0331 -0.009,-0.0331 0.005,0 0.0162,0.0149 0.026,0.0331 0.01,0.0182 0.014,0.0331 0.009,0.0331 -0.005,0 -0.0162,-0.0149 -0.026,-0.0331 z m -0.11787,-0.17777 c -0.0206,-0.0262 -0.02,-0.0268 0.006,-0.006 0.0275,0.0216 0.0363,0.0352 0.0227,0.0352 -0.003,0 -0.0165,-0.013 -0.0289,-0.0289 z m -0.0573,-0.0744 -0.0315,-0.0372 0.0372,0.0315 c 0.0205,0.0173 0.0372,0.0341 0.0372,0.0372 0,0.0132 -0.0133,0.003 -0.0429,-0.0315 z m -0.0903,-0.10749 -0.057,-0.062 0.062,0.057 c 0.0341,0.0313 0.062,0.0593 0.062,0.062 0,0.0126 -0.014,7.3e-4 -0.067,-0.057 z m -0.11611,-0.0992 -0.0401,-0.0455 0.0455,0.0401 c 0.025,0.0221 0.0455,0.0425 0.0455,0.0455 0,0.013 -0.0134,0.002 -0.0509,-0.0401 z"
         id="path57" /><path
         style="fill:#0dceda"
         d="m 102.69948,147.07998 c 0,-0.0655 0.35949,-0.56664 0.64803,-0.90336 0.24287,-0.28342 0.74511,-0.80393 1.01597,-1.05292 0.33709,-0.30988 0.55483,-0.49324 0.58571,-0.49324 0.0378,0 0.10016,0.0498 0.4083,0.32654 0.55586,0.49912 1.11323,1.09409 1.45167,1.54959 0.20407,0.27465 0.3891,0.57591 0.36719,0.59783 -0.004,0.004 -0.0792,-0.0271 -0.16775,-0.0685 -0.39694,-0.1855 -1.08269,-0.36406 -1.4339,-0.37338 -0.0398,-0.001 -0.0593,-0.005 -0.0434,-0.009 0.0353,-0.009 0.0385,-0.0382 0.004,-0.0382 -0.0136,0 -0.0248,-0.0102 -0.0248,-0.0226 0,-0.0124 -0.0137,-0.0403 -0.0305,-0.062 -0.0315,-0.0406 -0.052,-0.10193 -0.063,-0.18806 -0.004,-0.0315 -0.0297,-0.0705 -0.0708,-0.10749 -0.0355,-0.0319 -0.0768,-0.0804 -0.0919,-0.10769 -0.0272,-0.0492 -0.0271,-0.0493 0.002,-0.008 0.12071,0.16781 0.27975,0.21167 0.36499,0.10065 0.028,-0.0364 0.0262,-0.17536 -0.003,-0.23172 -0.0286,-0.0552 -0.1975,-0.21364 -0.37638,-0.35292 -0.0702,-0.0547 -0.12304,-0.10698 -0.11734,-0.1162 0.006,-0.009 0.003,-0.0121 -0.006,-0.006 -0.009,0.006 -0.0456,-0.005 -0.0811,-0.0239 -0.0501,-0.0266 -0.0546,-0.032 -0.02,-0.0242 0.071,0.016 0.0714,-0.0194 10e-4,-0.10283 -0.0358,-0.0426 -0.0843,-0.10788 -0.10769,-0.14508 -0.0234,-0.0372 -0.0534,-0.0785 -0.0666,-0.0917 -0.0132,-0.0132 -0.0432,-0.0794 -0.0666,-0.14701 -0.0234,-0.0676 -0.0507,-0.12568 -0.0606,-0.12899 -0.0623,-0.0208 -0.98929,0.89497 -1.39411,1.37713 -0.31347,0.37335 -0.61537,0.80299 -0.60151,0.85601 0.004,0.0162 9.6e-4,0.0294 -0.007,0.0294 -0.008,0 -0.015,-0.0139 -0.015,-0.0309 z m 0.24805,-0.0931 c 0.0227,-0.013 0.0488,-0.0236 0.0579,-0.0236 0.009,0 -0.002,0.0106 -0.0248,0.0236 -0.0227,0.013 -0.0488,0.0236 -0.0579,0.0236 -0.009,0 0.002,-0.0106 0.0248,-0.0236 z m 0.0992,-0.0413 c 0.0136,-0.009 0.0323,-0.016 0.0413,-0.016 0.009,0 0.005,0.007 -0.008,0.016 -0.0136,0.009 -0.0323,0.016 -0.0413,0.016 -0.009,0 -0.005,-0.007 0.008,-0.016 z m 0.10932,-0.0406 c 0.0283,-0.0131 0.0729,-0.028 0.0992,-0.0332 0.0409,-0.008 0.0394,-0.006 -0.0101,0.0133 -0.0318,0.0125 -0.0765,0.0274 -0.0992,0.0332 -0.0311,0.008 -0.0286,0.005 0.0101,-0.0133 z m 0.21831,-0.0699 c 0.0119,-0.005 0.0262,-0.004 0.0317,0.001 0.005,0.005 -0.004,0.009 -0.0217,0.009 -0.0193,-7.9e-4 -0.0232,-0.005 -0.01,-0.01 z m 0.0662,-0.0165 c 0.0119,-0.005 0.0262,-0.004 0.0317,0.001 0.005,0.006 -0.004,0.009 -0.0217,0.009 -0.0193,-8e-4 -0.0232,-0.005 -0.01,-0.01 z m 0.11575,-0.0331 c 0.0119,-0.005 0.0262,-0.004 0.0317,0.001 0.005,0.005 -0.004,0.009 -0.0217,0.009 -0.0193,-8e-4 -0.0232,-0.005 -0.01,-0.01 z m 0.0662,-0.0165 c 0.0119,-0.005 0.0262,-0.004 0.0317,0.001 0.005,0.006 -0.004,0.009 -0.0217,0.009 -0.0193,-7.9e-4 -0.0232,-0.005 -0.01,-0.01 z m 0.0651,-0.0162 c 0.0114,-0.005 0.03,-0.005 0.0413,0 0.0114,0.005 0.002,0.008 -0.0207,0.008 -0.0227,0 -0.032,-0.004 -0.0207,-0.008 z m 0.0837,-0.0169 c 0.0119,-0.005 0.0262,-0.004 0.0317,0.001 0.005,0.005 -0.004,0.009 -0.0217,0.009 -0.0193,-8e-4 -0.0232,-0.005 -0.01,-0.01 z m 0.0651,-0.0162 c 0.0114,-0.005 0.03,-0.005 0.0413,0 0.0114,0.005 0.002,0.008 -0.0207,0.008 -0.0227,0 -0.032,-0.004 -0.0207,-0.008 z m 0.091,-0.017 c 0.0159,-0.004 0.042,-0.004 0.0579,0 0.0159,0.004 0.003,0.008 -0.0289,0.008 -0.0318,0 -0.0449,-0.003 -0.0289,-0.008 z m 0.13261,-0.0166 c 0.0161,-0.004 0.0384,-0.004 0.0496,6.1e-4 0.0112,0.005 -0.002,0.008 -0.0293,0.008 -0.0273,-3.4e-4 -0.0364,-0.004 -0.0203,-0.008 z m 0.1239,-0.0168 c 0.0206,-0.004 0.0503,-0.004 0.0661,3.3e-4 0.0158,0.004 -0.001,0.007 -0.0374,0.007 -0.0364,-1.9e-4 -0.0493,-0.004 -0.0287,-0.008 z m 0.15713,-0.0167 c 0.0251,-0.004 0.0623,-0.004 0.0827,2.3e-4 0.0203,0.004 -2.3e-4,0.007 -0.0457,0.007 -0.0455,-1.2e-4 -0.0621,-0.003 -0.037,-0.007 z m 0.22345,-0.0168 c 0.0389,-0.003 0.0984,-0.003 0.13229,1.1e-4 0.0339,0.004 0.002,0.006 -0.0707,0.006 -0.0728,-6e-5 -0.10047,-0.003 -0.0616,-0.006 z m 0.69453,0 c 0.0389,-0.003 0.0984,-0.003 0.13229,1.1e-4 0.0339,0.004 0.002,0.006 -0.0707,0.006 -0.0728,-6e-5 -0.10047,-0.003 -0.0616,-0.006 z m -0.86033,-0.34608 c 0.0114,-0.005 0.03,-0.005 0.0413,0 0.0114,0.005 0.002,0.008 -0.0207,0.008 -0.0227,0 -0.032,-0.004 -0.0207,-0.008 z m 0.11304,-0.0291 c 0.0281,-0.0122 0.0714,-0.0473 0.0964,-0.0779 0.025,-0.0306 0.0375,-0.0397 0.0279,-0.0203 -0.0238,0.0481 -0.11369,0.12182 -0.14768,0.12102 -0.0152,-3.5e-4 -0.005,-0.0106 0.0234,-0.0229 z m -0.22677,-0.022 c -0.0206,-0.0262 -0.02,-0.0268 0.006,-0.006 0.0275,0.0216 0.0363,0.0352 0.0227,0.0352 -0.003,0 -0.0165,-0.013 -0.0289,-0.0289 z m -0.0437,-0.11989 c 0,-0.0318 0.003,-0.0449 0.008,-0.0289 0.004,0.0159 0.004,0.042 0,0.0579 -0.004,0.0159 -0.008,0.003 -0.008,-0.0289 z m 0.43584,-0.0538 c 0.0496,-0.0982 0.16267,-0.19553 0.22509,-0.19365 0.0118,3.5e-4 -0.005,0.0119 -0.0363,0.0257 -0.0753,0.0327 -0.12811,0.083 -0.16742,0.15969 -0.0175,0.0341 -0.0356,0.062 -0.0402,0.062 -0.005,0 0.004,-0.0242 0.0188,-0.0538 z m 0.4869,-0.0638 c -0.03,-0.0374 -0.0852,-0.0819 -0.12266,-0.0988 -0.0374,-0.017 -0.0584,-0.0311 -0.0466,-0.0313 0.053,-8.9e-4 0.13947,0.0665 0.21701,0.16914 0.0445,0.0589 0.005,0.0266 -0.0478,-0.039 z m -0.91004,0.0406 c 0,-0.029 0.0896,-0.14207 0.17524,-0.22106 0.0807,-0.0745 0.33231,-0.28422 0.39526,-0.32954 0.0679,-0.0489 -0.014,0.025 -0.16536,0.14919 -0.21956,0.18014 -0.30564,0.26311 -0.35813,0.34519 -0.0259,0.0404 -0.047,0.0657 -0.047,0.0562 z m 0.67489,-0.59579 c 0.0119,-0.005 0.0262,-0.004 0.0317,0.001 0.005,0.005 -0.004,0.009 -0.0217,0.009 -0.0193,-7.9e-4 -0.0232,-0.005 -0.01,-0.01 z"
         id="path56" /><path
         style="fill:#a7d909"
         d="m 106.35379,150.14508 c -0.0344,-0.0415 -0.008,-0.16572 0.0826,-0.38831 0.179,-0.43971 0.29691,-0.88193 0.33125,-1.24237 0.0367,-0.38478 -0.0681,-0.60999 -0.37227,-0.79995 -0.21508,-0.13434 -0.4885,-0.22056 -0.90124,-0.2842 -0.14093,-0.0217 -0.28222,-0.029 -0.5457,-0.028 -0.42412,0.002 -0.6828,0.0349 -1.01865,0.13122 -0.0339,0.01 -0.035,0.004 -0.0442,-0.23523 -0.005,-0.13486 -0.004,-0.2501 0.002,-0.2561 0.0243,-0.0239 0.49972,-0.0834 0.75274,-0.0941 0.6356,-0.0269 1.24982,0.0292 1.78015,0.16283 0.39946,0.10061 0.8779,0.29367 0.99549,0.4017 0.0219,0.0201 0.0852,0.0758 0.14079,0.12372 0.16544,0.14279 0.38316,0.4548 0.46271,0.66309 l 0.0277,0.0725 -0.0568,0.0485 c -0.0644,0.055 -0.30513,0.17883 -0.3477,0.17883 -0.0185,0 -0.0517,-0.0462 -0.0972,-0.13527 -0.0839,-0.16424 -0.20881,-0.34428 -0.23877,-0.34428 -0.005,0 -0.01,0.0666 -0.01,0.14799 0,0.37476 -0.17047,0.90245 -0.43076,1.33337 -0.17413,0.28828 -0.40716,0.56916 -0.47222,0.56916 -0.0105,0 -0.0284,-0.0113 -0.0398,-0.0251 z"
         id="path55" /><path
         style="fill:#0bacc6"
         d="m 102.71602,147.07171 c 0,-0.0554 0.33373,-0.52049 0.60724,-0.84624 0.40482,-0.48216 1.33184,-1.39788 1.39411,-1.37713 0.01,0.003 0.0372,0.0614 0.0606,0.12899 0.0234,0.0676 0.0534,0.13379 0.0666,0.14701 0.0132,0.0132 0.0432,0.0545 0.0666,0.0917 0.0234,0.0372 0.0702,0.10112 0.10396,0.14205 0.0338,0.0409 0.0611,0.086 0.0607,0.10018 -6.1e-4,0.0229 -0.009,0.0232 -0.07,0.003 -0.097,-0.0319 -0.14,-0.0105 -0.37991,0.18969 -0.36598,0.30534 -0.44091,0.42323 -0.35676,0.56125 0.0414,0.0679 0.12458,0.0967 0.21177,0.0732 0.0739,-0.0199 0.12997,-0.0749 0.19511,-0.19136 0.0647,-0.11578 0.11776,-0.1687 0.20074,-0.20039 0.0669,-0.0255 0.0765,-0.0255 0.14524,7.8e-4 0.0776,0.0296 0.14773,0.0984 0.21748,0.21322 0.0231,0.038 0.0711,0.0952 0.10664,0.12715 0.0413,0.0371 0.067,0.076 0.071,0.10749 0.011,0.0861 0.0315,0.14742 0.063,0.18806 0.0168,0.0217 0.0305,0.0496 0.0305,0.062 0,0.0124 0.0112,0.0226 0.0248,0.0226 0.0136,0 0.0248,0.006 0.0248,0.0124 0,0.007 -0.26603,0.0126 -0.59117,0.0128 -0.68588,4.2e-4 -0.92878,0.025 -1.38213,0.14001 -0.33873,0.0859 -0.47715,0.1328 -0.68705,0.2327 -0.0944,0.0449 -0.17439,0.0817 -0.17777,0.0817 -0.003,0 -0.006,-0.0102 -0.006,-0.0227 z"
         id="path54" /><path
         style="fill:#e24746"
         d="m 104.92979,152.24137 c -0.0206,-0.0263 -0.02,-0.0268 0.007,-0.006 0.0161,0.0127 0.0315,0.0201 0.0341,0.0165 0.003,-0.004 0.04,-0.0567 0.0831,-0.11811 0.0431,-0.0614 0.0818,-0.11162 0.0859,-0.11162 0.004,0 -0.0312,0.0558 -0.0786,0.12402 -0.0474,0.0682 -0.0912,0.12403 -0.0973,0.12403 -0.006,0 -0.0213,-0.013 -0.0338,-0.0289 z m -0.11435,-0.1571 c -0.0307,-0.0386 -0.0428,-0.0598 -0.0268,-0.0469 0.0301,0.0242 0.10096,0.11722 0.0893,0.11722 -0.004,0 -0.0318,-0.0316 -0.0625,-0.0703 z m -0.11594,-0.14056 -0.057,-0.062 0.062,0.057 c 0.0577,0.053 0.0696,0.067 0.057,0.067 -0.003,0 -0.0307,-0.0279 -0.062,-0.062 z m 0.48007,0.0202 c 0.0225,-0.027 0.0693,-0.0794 0.10384,-0.11642 l 0.0629,-0.0673 -0.0513,-0.19732 c -0.0453,-0.1744 -0.0501,-0.21363 -0.0408,-0.33787 0.006,-0.0773 0.0143,-0.15358 0.0189,-0.1695 0.006,-0.0215 -0.002,-0.0292 -0.03,-0.0298 -0.0211,-5e-4 0.0174,-0.0155 0.0854,-0.0333 0.25289,-0.0662 0.35385,-0.22804 0.29645,-0.47522 -0.05,-0.21522 -0.3152,-0.64164 -0.55636,-0.8945 l -0.10094,-0.10582 -0.0494,0.0314 c -0.0423,0.0269 -0.10946,0.10466 -0.31388,0.36348 l -0.0381,0.0483 0.0368,-0.0579 c 0.0202,-0.0318 0.062,-0.0894 0.0927,-0.12786 0.0521,-0.0652 0.0548,-0.0742 0.0387,-0.13229 -0.01,-0.0343 -0.0222,-0.15533 -0.0281,-0.26902 -0.006,-0.11368 -0.0156,-0.22023 -0.0216,-0.23676 -0.009,-0.0248 -0.0346,-0.005 -0.14726,0.11211 -0.0751,0.0782 -0.12895,0.12809 -0.11973,0.11087 0.0312,-0.0584 0.41171,-0.40989 0.48675,-0.44969 l 0.0746,-0.0396 0.0625,0.0445 c 0.11876,0.0845 0.33605,0.29495 0.49254,0.47704 0.35916,0.41791 0.61304,0.8841 0.64754,1.18904 0.006,0.0544 0.0131,0.0989 0.0153,0.0989 0.002,0 0.0536,-0.0186 0.11399,-0.0413 0.0604,-0.0227 0.11377,-0.0413 0.11857,-0.0413 0.029,0 0.0567,0.13078 0.0567,0.2683 0,0.0845 0.007,0.17722 0.0151,0.20609 l 0.0151,0.0525 -0.15974,0.0697 c -0.50543,0.22041 -0.85458,0.43373 -1.07752,0.65831 -0.0773,0.0779 -0.12213,0.11947 -0.0996,0.0924 z m -0.41698,-0.91248 c 0.0206,-0.004 0.0503,-0.004 0.0661,3.3e-4 0.0158,0.004 -10e-4,0.007 -0.0374,0.007 -0.0364,-1.9e-4 -0.0493,-0.004 -0.0288,-0.008 z m 0.33073,0 c 0.0206,-0.004 0.0503,-0.004 0.0661,3.3e-4 0.0158,0.004 -10e-4,0.007 -0.0374,0.007 -0.0364,-1.9e-4 -0.0493,-0.004 -0.0287,-0.008 z m -0.43809,-0.0163 c 0.0161,-0.004 0.0384,-0.004 0.0496,6.1e-4 0.0112,0.005 -0.002,0.008 -0.0293,0.008 -0.0273,-3.4e-4 -0.0365,-0.004 -0.0204,-0.008 z m -0.1202,-1.0138 c 0.01,-0.0182 0.0214,-0.0331 0.026,-0.0331 0.005,0 3.1e-4,0.0149 -0.009,0.0331 -0.01,0.0182 -0.0214,0.0331 -0.026,0.0331 -0.005,0 -3e-4,-0.0149 0.009,-0.0331 z"
         id="path53" /><path
         style="fill:#a21c69"
         d="m 104.88003,152.15042 c -0.0941,-0.13968 -0.35469,-0.39291 -0.54476,-0.52942 -0.0857,-0.0615 -0.23565,-0.15232 -0.33328,-0.20176 -0.0976,-0.0494 -0.17179,-0.0934 -0.16481,-0.0977 0.007,-0.004 0.0488,0.0105 0.0929,0.0328 0.0441,0.0224 0.0821,0.0385 0.0845,0.036 0.005,-0.006 -0.0967,-0.31677 -0.12921,-0.39329 -0.0135,-0.0318 -0.0376,-0.12485 -0.0534,-0.2067 -0.0295,-0.15236 -0.0464,-0.19185 -0.0797,-0.18551 -0.0455,0.009 0.0297,-0.25218 0.13145,-0.45582 0.14849,-0.29716 0.3139,-0.52495 0.59513,-0.81958 0.16007,-0.16769 0.1968,-0.19869 0.20577,-0.17363 0.006,0.0168 0.0158,0.12352 0.0217,0.2372 0.006,0.11369 0.0184,0.23399 0.0276,0.26733 0.016,0.0578 0.013,0.0657 -0.0653,0.16911 -0.14044,0.18556 -0.30709,0.49249 -0.35502,0.65387 -0.0327,0.11 -0.0345,0.26505 -0.004,0.33649 0.076,0.17768 0.39185,0.27265 0.79795,0.23996 0.0883,-0.007 0.16187,-0.0111 0.16339,-0.009 0.002,0.002 -0.004,0.076 -0.0131,0.16399 -0.015,0.15202 -0.0133,0.16992 0.0357,0.3612 l 0.0515,0.20126 -0.0902,0.0997 c -0.0496,0.0548 -0.13332,0.16164 -0.18603,0.23739 -0.0527,0.0757 -0.10114,0.13811 -0.10762,0.13858 -0.006,4.7e-4 -0.0431,-0.0457 -0.0814,-0.1025 z"
         id="path52" /><path
         style="fill:#683c83"
         d="m 104.47558,151.73701 -0.0315,-0.0372 0.0372,0.0315 c 0.035,0.0296 0.0447,0.0429 0.0315,0.0429 -0.003,0 -0.0199,-0.0167 -0.0372,-0.0372 z m -0.89967,-0.5024 c -0.45158,-0.1968 -1.04259,-0.50887 -1.11621,-0.58939 -0.009,-0.01 0.006,-0.004 0.0331,0.013 0.32315,0.20239 0.6699,0.38042 1.10795,0.56882 0.12733,0.0548 0.22034,0.0991 0.2067,0.0986 -0.0136,-5.2e-4 -0.11782,-0.0415 -0.23151,-0.091 z m -0.0992,-0.60785 c -0.3593,-0.16693 -0.58006,-0.29638 -0.85989,-0.50422 -0.58299,-0.43302 -0.62557,-0.90339 -0.16081,-1.77639 0.0234,-0.044 0.0215,-0.0524 -0.0375,-0.16536 -0.0342,-0.0655 -0.0675,-0.13761 -0.0739,-0.16035 -0.0196,-0.0696 -0.0988,-0.21489 -0.11721,-0.21494 -0.0294,-6e-5 -0.20473,0.27917 -0.3011,0.47951 -0.24797,0.51548 -0.36561,0.99224 -0.32161,1.30337 0.0245,0.17292 0.0692,0.29724 0.15356,0.42674 0.087,0.13347 0.33214,0.36837 0.50711,0.48585 0.0744,0.05 0.13562,0.0968 0.13592,0.10391 3.1e-4,0.007 -0.0435,-0.0169 -0.0973,-0.0534 -0.56254,-0.38202 -0.77214,-0.74863 -0.71591,-1.25222 0.0347,-0.31073 0.13808,-0.63557 0.3254,-1.02248 0.13692,-0.28278 0.24283,-0.43772 0.40544,-0.59307 0.22536,-0.21531 0.44846,-0.34044 0.85488,-0.47947 0.18977,-0.0649 0.46171,-0.13439 0.65017,-0.16608 l 0.0579,-0.01 0.006,0.26227 0.006,0.26228 -0.0472,0.0114 c -0.026,0.006 -0.1165,0.0449 -0.20116,0.0858 -0.11748,0.0567 -0.18043,0.10058 -0.26594,0.18514 -0.2242,0.22172 -0.27543,0.44824 -0.20052,0.88644 0.0586,0.34301 0.13292,0.59719 0.32082,1.09788 0.0775,0.2064 0.09,0.27758 0.0592,0.33527 -0.0157,0.0294 -0.021,0.0301 -0.0635,0.008 -0.13126,-0.0679 -0.36759,-0.39696 -0.55497,-0.77279 -0.18895,-0.37895 -0.2773,-0.69386 -0.30312,-1.08041 l -0.0121,-0.18119 -0.061,0.0832 c -0.10011,0.13655 -0.25658,0.45102 -0.31859,0.64031 -0.20836,0.63607 -0.0556,0.99109 0.61165,1.42153 0.22914,0.14782 0.78182,0.42886 0.84694,0.43068 0.0114,3.2e-4 0.0207,0.007 0.0207,0.0144 0,0.0221 -0.0134,0.0172 -0.24805,-0.0919 z m 0.25127,0.0147 c 3.4e-4,-0.0273 0.004,-0.0365 0.008,-0.0204 0.004,0.0161 0.004,0.0384 -6.1e-4,0.0496 -0.005,0.0112 -0.008,-0.002 -0.008,-0.0292 z m 0.47634,-1.02324 c 0,-0.003 0.013,-0.0165 0.0289,-0.0289 0.0262,-0.0206 0.0268,-0.02 0.006,0.006 -0.0216,0.0275 -0.0352,0.0363 -0.0352,0.0227 z m 0.11575,-0.13432 c 0.0214,-0.0227 0.0426,-0.0413 0.0471,-0.0413 0.005,0 -0.009,0.0186 -0.0306,0.0413 -0.0214,0.0227 -0.0426,0.0413 -0.0471,0.0413 -0.005,0 0.009,-0.0186 0.0306,-0.0413 z"
         id="path51" /><path
         style="fill:#672d78"
         d="m 103.93764,151.35914 c -0.033,-0.0179 -0.0776,-0.0359 -0.0992,-0.0401 -0.0572,-0.011 -0.39755,-0.15842 -0.69211,-0.29974 -0.21593,-0.1036 -0.71742,-0.38597 -0.74453,-0.41922 -0.005,-0.006 -0.0675,-0.0506 -0.13984,-0.10015 -0.17452,-0.11938 -0.41888,-0.35457 -0.50375,-0.48484 -0.0844,-0.1295 -0.12911,-0.25382 -0.15356,-0.42674 -0.044,-0.31113 0.0736,-0.78789 0.32161,-1.30337 0.0964,-0.20034 0.27171,-0.47957 0.3011,-0.47951 0.0184,5e-5 0.0976,0.14529 0.11721,0.21494 0.006,0.0227 0.0396,0.0949 0.0739,0.16035 0.059,0.11294 0.061,0.12137 0.0375,0.16536 -0.17231,0.32366 -0.25614,0.54224 -0.29623,0.77241 -0.0722,0.41464 0.0627,0.7111 0.45704,1.00398 0.28151,0.20909 0.52915,0.35339 0.8809,0.51331 0.11683,0.0531 0.21537,0.0966 0.21898,0.0966 0.004,0 0.0115,-0.0261 0.0174,-0.0581 0.0236,-0.12591 0.0592,-0.0838 0.0978,0.11594 0.0158,0.0819 0.0397,0.17487 0.0529,0.2067 0.0613,0.14705 0.13948,0.39741 0.12352,0.39577 -0.006,-6.1e-4 -0.0378,-0.0157 -0.0707,-0.0336 z"
         id="path50" /></g></g></svg>
